<svg width="36" height="19" viewBox="0 0 36 19" fill="none" xmlns="http://www.w3.org/2000/svg">
<path d="M10.2608 6.02893H4.38106L0 12.0245L5.1304 18.02H10.2608C7.76944 17.0827 6.11049 14.6862 6.11049 12.0245C6.11049 9.36277 7.76944 6.96623 10.2608 6.02893Z" fill="#002087"/>
<path d="M22.251 0H28.9522C31.1902 3.01497 33.4289 6.02994 35.6669 9.04491C33.4239 12.0255 31.1809 15.0052 28.9379 17.9858H22.251C22.4935 17.8414 27.3604 14.8315 27.3705 9.01134C27.3805 3.16769 22.4843 0.138455 22.251 0Z" fill="#002087"/>
<path d="M24.4747 3.203L16.3536 15.8486C15.4977 17.1811 14.0284 17.9867 12.4509 17.9867H10.6292L18.8358 5.32515C19.6934 4.00185 21.1576 3.20384 22.7276 3.20384H24.4747V3.203Z" fill="#0034DB"/>
</svg>
