<svg width="12" height="8" viewBox="0 0 12 8" fill="none" xmlns="http://www.w3.org/2000/svg">
<path fill-rule="evenodd" clip-rule="evenodd" d="M6.43788 7.62368C6.28384 7.79822 6.07494 7.89628 5.85713 7.89628C5.63931 7.89628 5.43042 7.79822 5.27638 7.62368L0.629557 2.35682C0.551102 2.27094 0.488524 2.1682 0.445473 2.05461C0.402423 1.94102 0.379763 1.81885 0.378815 1.69523C0.377867 1.57161 0.398651 1.44901 0.439953 1.33459C0.481255 1.22017 0.542249 1.11621 0.619375 1.0288C0.696501 0.94138 0.788215 0.872247 0.889166 0.825434C0.990116 0.778621 1.09828 0.755064 1.20735 0.756139C1.31642 0.757213 1.42421 0.782897 1.52442 0.831691C1.62464 0.880486 1.71528 0.951414 1.79106 1.04034L5.85713 5.64896L9.9232 1.04034C10.0781 0.870742 10.2856 0.776899 10.501 0.77902C10.7164 0.781141 10.9224 0.879057 11.0747 1.05168C11.227 1.2243 11.3134 1.45781 11.3153 1.70193C11.3171 1.94604 11.2343 2.18123 11.0847 2.35682L6.43788 7.62368Z" fill="white"/>
</svg>
