<svg width="11" height="8" viewBox="0 0 11 8" fill="none" xmlns="http://www.w3.org/2000/svg">
<path fill-rule="evenodd" clip-rule="evenodd" d="M4.87743 0.272559C5.03147 0.0980167 5.24037 -3.57628e-05 5.45818 -3.57628e-05C5.67599 -3.57628e-05 5.88489 0.0980167 6.03893 0.272559L10.6858 5.53942C10.7642 5.6253 10.8268 5.72804 10.8698 5.84163C10.9129 5.95522 10.9355 6.07739 10.9365 6.20101C10.9374 6.32463 10.9167 6.44723 10.8754 6.56165C10.8341 6.67607 10.7731 6.78003 10.6959 6.86744C10.6188 6.95486 10.5271 7.02399 10.4261 7.07081C10.3252 7.11762 10.217 7.14118 10.108 7.1401C9.99889 7.13903 9.8911 7.11334 9.79088 7.06455C9.69067 7.01575 9.60002 6.94483 9.52425 6.8559L5.45818 2.24728L1.39211 6.8559C1.23718 7.0255 1.02969 7.11934 0.814314 7.11722C0.598938 7.1151 0.392914 7.01718 0.240614 6.84456C0.0883141 6.67194 0.00192451 6.43843 5.34058e-05 6.19431C-0.0018177 5.9502 0.0809774 5.71501 0.230607 5.53942L4.87743 0.272559Z" fill="white"/>
</svg>
