
<svg width="16" height="12" viewBox="0 0 16 12" fill="none" xmlns="http://www.w3.org/2000/svg">
<path fill-rule="evenodd" clip-rule="evenodd" d="M16 6C16 5.79244 15.9184 5.59338 15.7732 5.44661C15.6281 5.29984 15.4311 5.21739 15.2258 5.21739H0.774194C0.568865 5.21739 0.371945 5.29984 0.226756 5.44661C0.0815665 5.59338 0 5.79244 0 6C0 6.20756 0.0815665 6.40662 0.226756 6.55339C0.371945 6.70016 0.568865 6.78261 0.774194 6.78261H15.2258C15.4311 6.78261 15.6281 6.70016 15.7732 6.55339C15.9184 6.40662 16 6.20756 16 6ZM16 0.782609C16 0.575048 15.9184 0.375988 15.7732 0.229221C15.6281 0.0824531 15.4311 0 15.2258 0H0.774194C0.568865 0 0.371945 0.0824531 0.226756 0.229221C0.0815665 0.375988 0 0.575048 0 0.782609C0 0.990169 0.0815665 1.18923 0.226756 1.336C0.371945 1.48276 0.568865 1.56522 0.774194 1.56522H15.2258C15.4311 1.56522 15.6281 1.48276 15.7732 1.336C15.9184 1.18923 16 0.990169 16 0.782609ZM16 11.2174C16 11.0098 15.9184 10.8108 15.7732 10.664C15.6281 10.5172 15.4311 10.4348 15.2258 10.4348H0.774194C0.568865 10.4348 0.371945 10.5172 0.226756 10.664C0.0815665 10.8108 0 11.0098 0 11.2174C0 11.425 0.0815665 11.624 0.226756 11.7708C0.371945 11.9175 0.568865 12 0.774194 12H15.2258C15.4311 12 15.6281 11.9175 15.7732 11.7708C15.9184 11.624 16 11.425 16 11.2174Z" fill="white"/>

</svg>
