<svg width="12" height="8" viewBox="0 0 12 8" fill="none" xmlns="http://www.w3.org/2000/svg">

<path fill-rule="evenodd" clip-rule="evenodd" d="M6.438 1.02872C6.28396 0.854181 6.07506 0.756129 5.85725 0.756129C5.63944 0.756129 5.43054 0.854181 5.2765 1.02872L0.629679 6.29558C0.551224 6.38147 0.488646 6.4842 0.445595 6.59779C0.402545 6.71138 0.379885 6.83355 0.378937 6.95718C0.377989 7.0808 0.398773 7.2034 0.440075 7.31782C0.481378 7.43224 0.542371 7.53619 0.619497 7.62361C0.696624 7.71103 0.788337 7.78016 0.889288 7.82697C0.990238 7.87378 1.0984 7.89734 1.20747 7.89627C1.31654 7.89519 1.42433 7.86951 1.52455 7.82071C1.62476 7.77192 1.7154 7.70099 1.79118 7.61207L5.85725 3.00345L9.92332 7.61207C10.0782 7.78166 10.2857 7.87551 10.5011 7.87338C10.7165 7.87126 10.9225 7.77335 11.0748 7.60073C11.2271 7.42811 11.3135 7.19459 11.3154 6.95048C11.3172 6.70636 11.2345 6.47118 11.0848 6.29558L6.438 1.02872Z" fill="white"/>

</svg>
