<svg width="12" height="8" viewBox="0 0 12 8" fill="none" xmlns="http://www.w3.org/2000/svg">
<path fill-rule="evenodd" clip-rule="evenodd" d="M6.438 7.62393C6.28396 7.79847 6.07506 7.89652 5.85725 7.89652C5.63944 7.89652 5.43054 7.79847 5.2765 7.62393L0.629679 2.35706C0.551224 2.27118 0.488646 2.16844 0.445595 2.05485C0.402545 1.94126 0.379885 1.81909 0.378937 1.69547C0.377989 1.57185 0.398773 1.44925 0.440075 1.33483C0.481378 1.22041 0.542371 1.11646 0.619497 1.02904C0.696624 0.941624 0.788337 0.872492 0.889288 0.825678C0.990238 0.778865 1.0984 0.755309 1.20747 0.756383C1.31654 0.757457 1.42433 0.783141 1.52455 0.831935C1.62476 0.88073 1.7154 0.951658 1.79118 1.04058L5.85725 5.6492L9.92332 1.04058C10.0782 0.870986 10.2857 0.777143 10.5011 0.779264C10.7165 0.781385 10.9225 0.879301 11.0748 1.05192C11.2271 1.22454 11.3135 1.45806 11.3154 1.70217C11.3172 1.94629 11.2345 2.18147 11.0848 2.35706L6.438 7.62393Z" fill="white"/>
</svg>
