<svg width="42" height="42" viewBox="0 0 42 42" fill="none" xmlns="http://www.w3.org/2000/svg">
<path d="M1 35.2857C1 33.7702 1.60204 32.3167 2.67368 31.2451C3.74531 30.1735 5.19876 29.5714 6.71429 29.5714C8.22981 29.5714 9.68326 30.1735 10.7549 31.2451C11.8265 32.3167 12.4286 33.7702 12.4286 35.2857C12.4286 36.8012 11.8265 38.2547 10.7549 39.3263C9.68326 40.398 8.22981 41 6.71429 41C5.19876 41 3.74531 40.398 2.67368 39.3263C1.60204 38.2547 1 36.8012 1 35.2857ZM1 35.2857V20.0476M6.71429 1C25.619 1 41 16.381 41 35.2857M31.4762 35.2857C31.4762 21.6324 20.3676 10.5238 6.71429 10.5238M21.9524 35.2857C21.9524 26.8838 15.1162 20.0476 6.71429 20.0476" stroke="#2B459B" stroke-width="2"/>
</svg>
