<svg width="44" height="40" viewBox="0 0 44 40" fill="none" xmlns="http://www.w3.org/2000/svg">
<path d="M12.5263 12H29.3684M12.5263 20H25.1579M22 35L20.9474 36L14.6316 30H8.31579C6.64074 30 5.03429 29.3679 3.84985 28.2426C2.66541 27.1174 2 25.5913 2 24V8C2 6.4087 2.66541 4.88258 3.84985 3.75736C5.03429 2.63214 6.64074 2 8.31579 2H33.5789C35.254 2 36.8604 2.63214 38.0449 3.75736C39.2293 4.88258 39.8947 6.4087 39.8947 8V19M29.3684 32H42M35.6842 26V38" stroke="#407BFF" stroke-width="3" stroke-linecap="round" stroke-linejoin="round"/>
</svg>
