<svg width="40" height="40" viewBox="0 0 40 40" fill="none" xmlns="http://www.w3.org/2000/svg">
<g clip-path="url(#clip0_3739_352)">
<path d="M11.875 17.5C11.3777 17.5 10.9008 17.6975 10.5492 18.0492C10.1975 18.4008 10 18.8777 10 19.375C10 19.8723 10.1975 20.3492 10.5492 20.7008C10.9008 21.0525 11.3777 21.25 11.875 21.25H23.125C23.6223 21.25 24.0992 21.0525 24.4508 20.7008C24.8025 20.3492 25 19.8723 25 19.375C25 18.8777 24.8025 18.4008 24.4508 18.0492C24.0992 17.6975 23.6223 17.5 23.125 17.5H11.875ZM12.5 11.875C12.5 11.3777 12.6975 10.9008 13.0492 10.5492C13.4008 10.1975 13.8777 10 14.375 10H28.125C28.6223 10 29.0992 10.1975 29.4508 10.5492C29.8025 10.9008 30 11.3777 30 11.875C30 12.3723 29.8025 12.8492 29.4508 13.2008C29.0992 13.5525 28.6223 13.75 28.125 13.75H14.375C13.8777 13.75 13.4008 13.5525 13.0492 13.2008C12.6975 12.8492 12.5 12.3723 12.5 11.875ZM16.875 25C16.3777 25 15.9008 25.1975 15.5492 25.5492C15.1975 25.9008 15 26.3777 15 26.875C15 27.3723 15.1975 27.8492 15.5492 28.2008C15.9008 28.5525 16.3777 28.75 16.875 28.75H28.125C28.6223 28.75 29.0992 28.5525 29.4508 28.2008C29.8025 27.8492 30 27.3723 30 26.875C30 26.3777 29.8025 25.9008 29.4508 25.5492C29.0992 25.1975 28.6223 25 28.125 25H16.875Z" fill="#407BFF"/>
<path d="M0 4.375C0 1.96 1.96 0 4.375 0H35.625C38.04 0 40 1.96 40 4.375V35.625C40 36.7853 39.5391 37.8981 38.7186 38.7186C37.8981 39.5391 36.7853 40 35.625 40H4.375C3.21468 40 2.10188 39.5391 1.28141 38.7186C0.460936 37.8981 0 36.7853 0 35.625L0 4.375ZM4.375 3.75C4.20924 3.75 4.05027 3.81585 3.93306 3.93306C3.81585 4.05027 3.75 4.20924 3.75 4.375V35.625C3.75 35.97 4.03 36.25 4.375 36.25H35.625C35.7908 36.25 35.9497 36.1842 36.0669 36.0669C36.1842 35.9497 36.25 35.7908 36.25 35.625V4.375C36.25 4.20924 36.1842 4.05027 36.0669 3.93306C35.9497 3.81585 35.7908 3.75 35.625 3.75H4.375Z" fill="#407BFF"/>
</g>
<defs>
<clipPath id="clip0_3739_352">
<rect width="40" height="40" fill="white"/>
</clipPath>
</defs>
</svg>
