<svg width="44" height="44" viewBox="0 0 44 44" fill="none" xmlns="http://www.w3.org/2000/svg">
<path d="M12.8142 14.3077C14.4537 14.3077 16.0259 13.6593 17.1852 12.5053C18.3444 11.3512 18.9957 9.78595 18.9957 8.15385C18.9957 6.52174 18.3444 4.95649 17.1852 3.80242C16.0259 2.64835 14.4537 2 12.8142 2C11.1748 2 9.60255 2.64835 8.44331 3.80242C7.28407 4.95649 6.63281 6.52174 6.63281 8.15385C6.63281 9.78595 7.28407 11.3512 8.44331 12.5053C9.60255 13.6593 11.1748 14.3077 12.8142 14.3077Z" stroke="#407BFF" stroke-width="3" stroke-linecap="round" stroke-linejoin="round"/>
<path d="M18.0315 32.8428L16.8818 41.9998H8.79339L7.24803 29.6921H2V25.0767C2.00041 22.3904 3.0093 19.8012 4.82865 17.8173C6.64801 15.8334 9.14646 14.5981 11.8336 14.3537C14.5208 14.1094 17.2027 14.8737 19.353 16.4967C21.5032 18.1197 22.9665 20.4841 23.4557 23.1259M28.7254 28.4244V26.4244C28.7254 25.6083 29.051 24.8257 29.6306 24.2487C30.2103 23.6716 30.9964 23.3475 31.8161 23.3475H33.0895C33.9092 23.3475 34.6953 23.6716 35.2749 24.2487C35.8546 24.8257 36.1802 25.6083 36.1802 26.4244V28.4244M22.9118 31.1382C22.9118 29.6398 24.1326 28.4244 25.6378 28.4244H39.274C40.7792 28.4244 42 29.6398 42 31.1413V39.2859C42 40.0057 41.7128 40.696 41.2016 41.2049C40.6903 41.7138 39.997 41.9998 39.274 41.9998H25.6378C24.9148 41.9998 24.2214 41.7138 23.7102 41.2049C23.199 40.696 22.9118 40.0057 22.9118 39.2859V31.1382Z" stroke="#407BFF" stroke-width="3" stroke-linecap="round" stroke-linejoin="round"/>
</svg>
