<svg width="42" height="38" viewBox="0 0 42 38" fill="none" xmlns="http://www.w3.org/2000/svg">
<path d="M15.5455 25H35.5455M15.5455 17H22.8182M15.5455 9H22.8182M5.54545 37C6.75098 37 7.90714 36.4732 8.75958 35.5355C9.61201 34.5979 10.0909 33.3261 10.0909 32V1H41V32C41 33.3261 40.5211 34.5979 39.6687 35.5355C38.8162 36.4732 37.6601 37 36.4545 37H5.54545ZM5.54545 37C4.33992 37 3.18377 36.4732 2.33133 35.5355C1.47889 34.5979 1 33.3261 1 32V9H10.1364M28.2727 9H33.7273V17H28.2727V9Z" stroke="#407BFF" stroke-width="2"/>
</svg>
