<svg width="40" height="40" viewBox="0 0 40 40" fill="none" xmlns="http://www.w3.org/2000/svg">
<path d="M26.6667 23.333C28.8768 23.333 30.9964 24.211 32.5592 25.7738C34.122 27.3366 35 29.4562 35 31.6663V33.333C35 34.2171 34.6488 35.0649 34.0237 35.69C33.3986 36.3152 32.5507 36.6663 31.6667 36.6663H8.33333C7.44928 36.6663 6.60143 36.3152 5.97631 35.69C5.35119 35.0649 5 34.2171 5 33.333V31.6663C5 29.4562 5.87797 27.3366 7.44078 25.7738C9.00358 24.211 11.1232 23.333 13.3333 23.333H26.6667ZM33.3333 13.333C33.7754 13.333 34.1993 13.5086 34.5118 13.8212C34.8244 14.1337 35 14.5576 35 14.9997V16.6663H36.6667C37.1087 16.6663 37.5326 16.8419 37.8452 17.1545C38.1577 17.4671 38.3333 17.891 38.3333 18.333C38.3333 18.775 38.1577 19.199 37.8452 19.5115C37.5326 19.8241 37.1087 19.9997 36.6667 19.9997H35V21.6663C35 22.1084 34.8244 22.5323 34.5118 22.8449C34.1993 23.1574 33.7754 23.333 33.3333 23.333C32.8913 23.333 32.4674 23.1574 32.1548 22.8449C31.8423 22.5323 31.6667 22.1084 31.6667 21.6663V19.9997H30C29.558 19.9997 29.134 19.8241 28.8215 19.5115C28.5089 19.199 28.3333 18.775 28.3333 18.333C28.3333 17.891 28.5089 17.4671 28.8215 17.1545C29.134 16.8419 29.558 16.6663 30 16.6663H31.6667V14.9997C31.6667 14.5576 31.8423 14.1337 32.1548 13.8212C32.4674 13.5086 32.8913 13.333 33.3333 13.333ZM20 3.33301C22.2101 3.33301 24.3298 4.21098 25.8926 5.77378C27.4554 7.33659 28.3333 9.4562 28.3333 11.6663C28.3333 13.8765 27.4554 15.9961 25.8926 17.5589C24.3298 19.1217 22.2101 19.9997 20 19.9997C17.7899 19.9997 15.6702 19.1217 14.1074 17.5589C12.5446 15.9961 11.6667 13.8765 11.6667 11.6663C11.6667 9.4562 12.5446 7.33659 14.1074 5.77378C15.6702 4.21098 17.7899 3.33301 20 3.33301Z" fill="#406ADC"/>
</svg>
