<svg width="29" height="29" viewBox="0 0 29 29" fill="none" xmlns="http://www.w3.org/2000/svg">
<path d="M15.95 13.05H21.75V15.95H15.95V21.75H13.05V15.95H7.25V13.05H13.05V7.25H15.95V13.05ZM14.5 29C10.6544 29 6.96623 27.4723 4.24695 24.753C1.52767 22.0338 0 18.3456 0 14.5C0 10.6544 1.52767 6.96623 4.24695 4.24695C6.96623 1.52767 10.6544 0 14.5 0C18.3456 0 22.0338 1.52767 24.753 4.24695C27.4723 6.96623 29 10.6544 29 14.5C29 18.3456 27.4723 22.0338 24.753 24.753C22.0338 27.4723 18.3456 29 14.5 29ZM14.5 26.1C17.5765 26.1 20.527 24.8779 22.7024 22.7024C24.8779 20.527 26.1 17.5765 26.1 14.5C26.1 11.4235 24.8779 8.47298 22.7024 6.29756C20.527 4.12214 17.5765 2.9 14.5 2.9C11.4235 2.9 8.47298 4.12214 6.29756 6.29756C4.12214 8.47298 2.9 11.4235 2.9 14.5C2.9 17.5765 4.12214 20.527 6.29756 22.7024C8.47298 24.8779 11.4235 26.1 14.5 26.1Z" fill="white"/>
</svg>
