<svg width="46" height="46" viewBox="0 0 46 46" fill="none" xmlns="http://www.w3.org/2000/svg">
<path fill-rule="evenodd" clip-rule="evenodd" d="M23 0C10.2977 0 0 10.2977 0 23C0 35.7023 10.2977 46 23 46C35.7023 46 46 35.7023 46 23C46 10.2977 35.7023 0 23 0ZM4.18182 23C4.18182 27.37 5.67264 31.3929 8.17127 34.5878C9.92603 32.2834 12.1898 30.4159 14.7857 29.1312C17.3817 27.8465 20.2395 27.1793 23.1359 27.1818C25.9949 27.1791 28.8167 27.829 31.3865 29.082C33.9563 30.335 36.2061 32.158 37.9646 34.4122C39.7763 32.0361 40.9961 29.2627 41.5231 26.3216C42.0502 23.3805 41.8693 20.3561 40.9954 17.4988C40.1215 14.6415 38.5798 12.0333 36.4978 9.89008C34.4158 7.74687 31.8534 6.13025 29.0226 5.17397C26.1918 4.21769 23.174 3.94925 20.2188 4.39085C17.2636 4.83246 14.4561 5.97141 12.0285 7.71348C9.60093 9.45554 7.62306 11.7506 6.25857 14.4089C4.89408 17.0671 4.1822 20.012 4.18182 23ZM23 41.8182C18.6801 41.8247 14.4906 40.3385 11.1404 37.6113C12.4889 35.6808 14.2837 34.1046 16.3722 33.0169C18.4607 31.9291 20.7811 31.362 23.1359 31.3636C25.4613 31.3618 27.7537 31.9147 29.8225 32.9766C31.8913 34.0385 33.6769 35.5786 35.0311 37.4691C31.6549 40.2849 27.3963 41.8243 23 41.8182Z" fill="white"/>
</svg>
