<svg width="34" height="34" viewBox="0 0 34 34" fill="none" xmlns="http://www.w3.org/2000/svg">
<path d="M21.6667 20.333C23.8768 20.333 25.9964 21.211 27.5592 22.7738C29.122 24.3366 30 26.4562 30 28.6663V30.333C30 31.2171 29.6488 32.0649 29.0237 32.69C28.3986 33.3152 27.5507 33.6663 26.6667 33.6663H3.33333C2.44928 33.6663 1.60143 33.3152 0.976311 32.69C0.351189 32.0649 0 31.2171 0 30.333V28.6663C0 26.4562 0.877974 24.3366 2.44078 22.7738C4.00358 21.211 6.1232 20.333 8.33333 20.333H21.6667ZM28.3333 10.333C28.7754 10.333 29.1993 10.5086 29.5118 10.8212C29.8244 11.1337 30 11.5576 30 11.9997V13.6663H31.6667C32.1087 13.6663 32.5326 13.8419 32.8452 14.1545C33.1577 14.4671 33.3333 14.891 33.3333 15.333C33.3333 15.775 33.1577 16.199 32.8452 16.5115C32.5326 16.8241 32.1087 16.9997 31.6667 16.9997H30V18.6663C30 19.1084 29.8244 19.5323 29.5118 19.8449C29.1993 20.1574 28.7754 20.333 28.3333 20.333C27.8913 20.333 27.4674 20.1574 27.1548 19.8449C26.8423 19.5323 26.6667 19.1084 26.6667 18.6663V16.9997H25C24.558 16.9997 24.134 16.8241 23.8215 16.5115C23.5089 16.199 23.3333 15.775 23.3333 15.333C23.3333 14.891 23.5089 14.4671 23.8215 14.1545C24.134 13.8419 24.558 13.6663 25 13.6663H26.6667V11.9997C26.6667 11.5576 26.8423 11.1337 27.1548 10.8212C27.4674 10.5086 27.8913 10.333 28.3333 10.333ZM15 0.333008C17.2101 0.333008 19.3298 1.21098 20.8926 2.77378C22.4554 4.33659 23.3333 6.4562 23.3333 8.66634C23.3333 10.8765 22.4554 12.9961 20.8926 14.5589C19.3298 16.1217 17.2101 16.9997 15 16.9997C12.7899 16.9997 10.6702 16.1217 9.10744 14.5589C7.54464 12.9961 6.66667 10.8765 6.66667 8.66634C6.66667 6.4562 7.54464 4.33659 9.10744 2.77378C10.6702 1.21098 12.7899 0.333008 15 0.333008Z" fill="white"/>
</svg>
