<svg width="32" height="32" viewBox="0 0 32 32" fill="none" xmlns="http://www.w3.org/2000/svg">
<path d="M3.23 32C2.31 32 1.542 31.692 0.926 31.076C0.308666 30.4587 0 29.69 0 28.77V3.23C0 2.31 0.308666 1.542 0.926 0.926C1.542 0.308666 2.31 0 3.23 0H16.038V2H3.23C2.92333 2 2.64133 2.128 2.384 2.384C2.128 2.64133 2 2.92333 2 3.23V28.77C2 29.0767 2.128 29.3587 2.384 29.616C2.64133 29.872 2.92333 30 3.23 30H16.038V32H3.23ZM24.924 23.076L23.52 21.638L28.158 17H10.384V15H28.158L23.518 10.36L24.924 8.924L32 16L24.924 23.076Z" fill="white"/>
</svg>
