<svg width="40" height="41" viewBox="0 0 40 41" fill="none" xmlns="http://www.w3.org/2000/svg">
<path d="M8 8.63158C8 3.86263 11.58 0 16 0C20.42 0 24 3.86263 24 8.63158C24 13.4005 20.42 17.2632 16 17.2632C11.58 17.2632 8 13.4005 8 8.63158ZM20 30.6421C20 28.5705 21 26.6284 22.4 25.3337V24.8158C22.4 23.9742 22.54 23.1758 22.76 22.3989C20.7 21.8811 18.42 21.5789 16 21.5789C7.16 21.5789 0 25.4416 0 30.2105V34.5263H20V30.6421ZM40 30.8579V38.4105C40 39.7053 38.8 41 37.4 41H26.4C25.2 41 24 39.7053 24 38.1947V30.6421C24 29.3474 25.2 28.0526 26.4 28.0526V24.8158C26.4 21.7947 29.2 19.4211 32 19.4211C34.8 19.4211 37.6 21.7947 37.6 24.8158V28.0526C38.8 28.0526 40 29.3474 40 30.8579ZM35 24.8158C35 23.0895 33.6 22.0105 32 22.0105C30.4 22.0105 29 23.0895 29 24.8158V28.0526H35V24.8158Z" fill="white"/>
</svg>
